# xmcd
#
# Track frame offsets:
#	150
#	14940
#	27650
#	51350
#	65285
#	77405
#	89532
#	104575
#	126117
#	139490
#
# Disc length: 2076
#
# Revision: 2
# Processed by: cddbd v1.5.1PL0 Copyright (c) Steve Scherf et al.
# Submitted via: CDmax 2.0
# Normalized: r1:DSETVAR1
#
DISCID=93081a0a
DTITLE=Various Artist - Circuit City Super Hits Exclusive
DYEAR=1998
DGENRE=Country
TTITLE0=George Jones - He Stopped Loving Her Today
TTITLE1=Johnny Cash - Folsom Prison Blues
TTITLE2=David Allan Coe - You Never Even Called Me By My Name
TTITLE3=Willie Nelson - My Heros Have Always Been Cowboys
TTITLE4=Tammy Wynette - Stand By Your Man
TTITLE5=Merle Haggard - Okie From Muskogee
TTITLE6=Ricky Van Shelton - Somebody Lied
TTITLE7=Merle Haggard And Willie Nelson - Pancho and Lefty
TTITLE8=Roy Orbison - Oh Pretty Woman
TTITLE9=The Charlie Daniels Band - The Devil Went Down To Georgia
EXTD=LABEL=Epic\nID=EK 69355\nUPC=0 7464-69355-2 1\nSPARS=AAD
EXTT0=Jones, George
EXTT1=Cash, Johnny
EXTT2=Coe, David Allan
EXTT3=Nelson, Willie
EXTT4=Wynette, Tammy
EXTT5=Haggard, Merle
EXTT6=Van Shelton, Ricky
EXTT7=Haggard And Willie Nelson, Merle
EXTT8=Orbison, Roy
EXTT9=Charlie Daniels Band, The
PLAYORDER=
